<?xml version="1.0" encoding="utf-8"?>
<!-- Generator: Adobe Illustrator 24.0.2, SVG Export Plug-In . SVG Version: 6.00 Build 0)  -->
<svg version="1.1" id="Слой_2" xmlns="http://www.w3.org/2000/svg" xmlns:xlink="http://www.w3.org/1999/xlink" x="0px" y="0px"
	 viewBox="0 0 39 37" style="enable-background:new 0 0 39 37;" xml:space="preserve">
<style type="text/css">
	.st0{fill:#727272;}
</style>
<g>
	<path class="st0" d="M18.3,24.6c-2.4-0.2-4.5-0.8-6.4-2.2c-0.2-0.2-0.5-0.3-0.7-0.5c-0.8-0.8-0.9-1.6-0.2-2.5
		c0.5-0.8,1.5-1,2.4-0.5c0.2,0.1,0.4,0.2,0.5,0.3c3.4,2.3,8.1,2.4,11.6,0.1c0.3-0.3,0.7-0.5,1.1-0.6c0.8-0.2,1.6,0.1,2,0.8
		c0.5,0.8,0.5,1.6-0.1,2.2c-1,1-2.1,1.6-3.4,2.1c-1.2,0.5-2.5,0.7-3.8,0.8c0.2,0.2,0.3,0.3,0.4,0.4c1.8,1.7,3.5,3.5,5.3,5.2
		c0.6,0.6,0.7,1.3,0.4,2c-0.4,0.8-1.2,1.2-2,1.2c-0.5,0-0.9-0.3-1.2-0.6c-1.3-1.3-2.7-2.6-4-3.9c-0.4-0.4-0.6-0.3-0.9,0
		c-1.3,1.3-2.7,2.7-4.1,4c-0.6,0.6-1.4,0.7-2.1,0.4c-0.8-0.4-1.2-1.1-1.2-1.9c0-0.5,0.3-0.9,0.6-1.3c1.8-1.7,3.5-3.4,5.2-5.1
		C18,24.9,18.1,24.8,18.3,24.6z"/>
	<path class="st0" d="M19.8,18.7c-4.3,0-7.7-3.4-7.7-7.6c0-4.2,3.5-7.6,7.8-7.6c4.3,0,7.8,3.4,7.7,7.7C27.6,15.3,24,18.7,19.8,18.7z
		 M23.6,11.1c0-2.1-1.7-3.7-3.8-3.7c-2.1,0-3.8,1.7-3.8,3.7c0,2.1,1.7,3.7,3.8,3.7C21.9,14.8,23.6,13.2,23.6,11.1z"/>
</g>
</svg>
